<svg width="1200" height="400" viewBox="0 0 1200 400" fill="none" xmlns="http://www.w3.org/2000/svg" role="img" aria-labelledby="title desc">
  <title id="title">Signoff — AI-assisted approval workflow</title>
  <desc id="desc">A dark navy GitHub README banner for Signoff with document, approval, RBAC, audit logs, and human review motifs.</desc>

  <defs>
    <linearGradient id="bg" x1="0" y1="0" x2="1200" y2="400" gradientUnits="userSpaceOnUse">
      <stop stop-color="#07111F"/>
      <stop offset="0.55" stop-color="#081B31"/>
      <stop offset="1" stop-color="#06101D"/>
    </linearGradient>

    <linearGradient id="teal" x1="0" y1="0" x2="1" y2="1">
      <stop stop-color="#38F2E7"/>
      <stop offset="1" stop-color="#17B8E6"/>
    </linearGradient>

    <filter id="softGlow" x="-40%" y="-40%" width="180%" height="180%">
      <feGaussianBlur stdDeviation="6" result="blur"/>
      <feColorMatrix in="blur" type="matrix" values="0 0 0 0 0.1 0 0 0 0 0.95 0 0 0 0 0.9 0 0 0 0.55 0"/>
      <feBlend in="SourceGraphic" mode="screen"/>
    </filter>

    <pattern id="dots" width="28" height="28" patternUnits="userSpaceOnUse">
      <circle cx="2" cy="2" r="1.1" fill="#1BA9D6" opacity="0.35"/>
    </pattern>
  </defs>

  <rect width="1200" height="400" rx="28" fill="url(#bg)"/>
  <rect width="1200" height="400" rx="28" fill="url(#dots)" opacity="0.65"/>

  <path d="M0 304C144 255 249 287 383 246C528 201 613 111 767 127C908 142 971 239 1200 178" stroke="#1BA9D6" stroke-opacity="0.16" stroke-width="2"/>
  <path d="M686 207H882" stroke="url(#teal)" stroke-opacity="0.45" stroke-width="2"/>
  <circle cx="686" cy="207" r="5" fill="#38F2E7" filter="url(#softGlow)"/>
  <circle cx="882" cy="207" r="5" fill="#38F2E7" filter="url(#softGlow)"/>

  <g transform="translate(88 115)">
    <rect x="0" y="0" width="88" height="112" rx="16" stroke="#EAF4FF" stroke-width="7"/>
    <path d="M62 0V31C62 37.6 67.4 43 74 43H88" stroke="url(#teal)" stroke-width="7" stroke-linecap="round" stroke-linejoin="round"/>
    <path d="M25 42H52" stroke="#B8C7DA" stroke-width="6" stroke-linecap="round"/>
    <path d="M25 70H48" stroke="#B8C7DA" stroke-width="6" stroke-linecap="round"/>
    <path d="M72 72H133" stroke="url(#teal)" stroke-width="8" stroke-linecap="round"/>
    <path d="M112 53L133 72L112 91" stroke="url(#teal)" stroke-width="8" stroke-linecap="round" stroke-linejoin="round"/>
  </g>

  <text x="260" y="170" fill="#F8FBFF" font-family="Inter, Segoe UI, Arial, sans-serif" font-size="88" font-weight="800" letter-spacing="-4">
    Signoff
  </text>

  <text x="264" y="226" fill="#34E6DC" font-family="Inter, Segoe UI, Arial, sans-serif" font-size="31" font-weight="700">
    AI-assisted approval workflow
  </text>

  <text x="264" y="286" fill="#F8FBFF" font-family="Inter, Segoe UI, Arial, sans-serif" font-size="25" font-weight="500">
    RBAC
  </text>
  <circle cx="354" cy="278" r="4.5" fill="#34E6DC"/>
  <text x="382" y="286" fill="#F8FBFF" font-family="Inter, Segoe UI, Arial, sans-serif" font-size="25" font-weight="500">
    audit logs
  </text>
  <circle cx="526" cy="278" r="4.5" fill="#34E6DC"/>
  <text x="554" y="286" fill="#F8FBFF" font-family="Inter, Segoe UI, Arial, sans-serif" font-size="25" font-weight="500">
    human review
  </text>

  <g transform="translate(815 88)">
    <circle cx="134" cy="116" r="110" stroke="#1BA9D6" stroke-opacity="0.12" stroke-width="2"/>
    <circle cx="134" cy="116" r="88" stroke="#38F2E7" stroke-opacity="0.26" stroke-width="2" stroke-dasharray="5 8"/>

    <rect x="52" y="28" width="128" height="170" rx="16" fill="#0A2038" stroke="#4E88C7" stroke-width="4"/>
    <path d="M148 28V70C148 77 153 82 160 82H180" fill="#34E6DC"/>
    <path d="M86 83H122" stroke="#34E6DC" stroke-width="6" stroke-linecap="round"/>
    <path d="M86 112H158" stroke="#5C89B8" stroke-width="5" stroke-linecap="round"/>
    <path d="M86 139H158" stroke="#5C89B8" stroke-width="5" stroke-linecap="round"/>
    <path d="M86 166H136" stroke="#5C89B8" stroke-width="5" stroke-linecap="round"/>

    <circle cx="188" cy="198" r="55" fill="#0A2038" stroke="url(#teal)" stroke-width="7" filter="url(#softGlow)"/>
    <path d="M162 198L181 216L218 174" stroke="#34E6DC" stroke-width="9" stroke-linecap="round" stroke-linejoin="round"/>
  </g>

  <rect x="1" y="1" width="1198" height="398" rx="27" stroke="#1BA9D6" stroke-opacity="0.13"/>
</svg>
